Coordinates
version=1
nRows=19
nColumns=24
inDegrees=yes

Units are S.I. units (second, meters, Newtons, ...)
Angles are in degrees.

endheader
time	pelvis_tilt	pelvis_list	pelvis_rotation	pelvis_tx	pelvis_ty	pelvis_tz	hip_flexion_r	hip_adduction_r	hip_rotation_r	knee_angle_r	ankle_angle_r	subtalar_angle_r	mtp_angle_r	hip_flexion_l	hip_adduction_l	hip_rotation_l	knee_angle_l	ankle_angle_l	subtalar_angle_l	mtp_angle_l	lumbar_extension	lumbar_bending	lumbar_rotation
      0.52900000	    -10.39077992	      1.71658996	     -2.71177716	     -0.77807080	      1.03809568	      0.29279707	     35.12151712	      0.25079286	     -2.56833030	     -9.02982808	      5.55837761	     -0.19922482	     11.05773101	     -0.81404944	      3.08724308	     -0.74162372	    -11.92981747	     21.50992435	      8.55690579	      1.09251768	      0.86102010	     -1.75102844	     -2.97009401
      0.53316667	    -10.34192078	      1.67605935	     -2.62900239	     -0.77182789	      1.03723546	      0.29307792	     35.04728610	      0.32694884	     -2.37254800	     -9.15640435	      5.50154927	     -0.41674101	     11.05884163	     -0.92478607	      3.02216373	     -0.79568223	    -12.59957668	     21.70517764	      8.77956487	      1.13469212	      0.84144276	     -1.67148269	     -3.00802165
      0.53733333	    -10.27791879	      1.62520782	     -2.55594253	     -0.76554038	      1.03644460	      0.29336249	     34.96005150	      0.41557748	     -2.17040505	     -9.36937378	      5.41429966	     -0.66586581	     11.06454562	     -1.02598249	      2.93902232	     -0.91528748	    -13.32806745	     21.87850001	      9.05086841	      1.21612387	      0.80246659	     -1.57691427	     -3.02236092
      0.54150000	    -10.20485873	      1.57505158	     -2.48165084	     -0.75926786	      1.03569953	      0.29366433	     34.86815122	      0.50486116	     -1.95272225	     -9.65714699	      5.28978394	     -0.96774003	     11.07299580	     -1.09755875	      2.84828586	     -1.05814362	    -14.13485431	     22.04059226	      9.37451339	      1.34094911	      0.75942691	     -1.47433169	     -3.04116906
      0.54566667	    -10.12119874	      1.51046882	     -2.40916560	     -0.75295382	      1.03501175	      0.29396409	     34.76130582	      0.60784725	     -1.72846973	    -10.00641429	      5.12445011	     -1.31606429	     11.08477875	     -1.15941283	      2.73479980	     -1.22862907	    -14.99382638	     22.17369742	      9.73712651	      1.50909514	      0.70638905	     -1.35217316	     -3.05070004
      0.54983333	    -10.05877422	      1.44410096	     -2.32925802	     -0.74661437	      1.03432652	      0.29426653	     34.67444015	      0.71072456	     -1.49810943	    -10.40961262	      4.92262473	     -1.70511131	     11.09804626	     -1.15938124	      2.60752282	     -1.42495463	    -15.93273072	     22.28916130	     10.14492091	      1.70452488	      0.68925758	     -1.23380891	     -3.05574122
      0.55400000	     -9.96459557	      1.36651950	     -2.26345324	     -0.74026632	      1.03373142	      0.29460360	     34.55820903	      0.83098626	     -1.26155592	    -10.87231998	      4.67359147	     -2.13003628	     11.11323822	     -1.16056219	      2.45631135	     -1.67952454	    -16.93867698	     22.36785894	     10.61204633	      1.95443313	      0.62346594	     -1.08847055	     -3.05349187
      0.55816667	     -9.89932539	      1.29316512	     -2.19523948	     -0.73389593	      1.03312345	      0.29494444	     34.47695533	      0.94687723	     -1.02648253	    -11.38995449	      4.39420836	     -2.57636427	     11.12952806	     -1.09773991	      2.29722198	     -1.95491758	    -18.01136325	     22.40846031	     11.10845203	      2.25719849	      0.60848272	     -0.94939966	     -3.04507512
      0.56233333	     -9.79471575	      1.20350038	     -2.12872024	     -0.72752664	      1.03262220	      0.29529846	     34.34949858	      1.07756918	     -0.79220765	    -11.93829462	      4.08026024	     -3.05052651	     11.14193033	     -1.04181566	      2.10702412	     -2.27101229	    -19.15552480	     22.42251874	     11.66017731	      2.58815233	      0.53498758	     -0.79646822	     -3.02900239
      0.56650000	     -9.70886544	      1.11230149	     -2.05987716	     -0.72115111	      1.03213454	      0.29567524	     34.24587802	      1.20990192	     -0.56751526	    -12.52694564	      3.73958360	     -3.52811107	     11.14946589	     -0.92344908	      1.90044545	     -2.59107619	    -20.38236875	     22.38038147	     12.23270045	      2.95222943	      0.49154579	     -0.63405382	     -3.01044995
      0.57066667	     -9.60642975	      1.02699012	     -1.99954297	     -0.71478206	      1.03171085	      0.29606529	     34.14048223	      1.33663827	     -0.36974705	    -13.17414277	      3.39257036	     -3.99000333	     11.26691606	     -0.80008442	      1.69107159	     -2.91535427	    -21.63252153	     22.16796081	     12.73829831	      7.47666271	      0.42444718	     -0.47473760	     -2.94003061
      0.57483333	     -9.52397422	      0.93778695	     -1.93768257	     -0.70841364	      1.03129357	      0.29648417	     34.05316024	      1.46898865	     -0.16338964	    -13.83674169	      3.03560115	     -4.46442549	     11.25139471	     -0.60573308	      1.45611969	     -3.28301017	    -22.98977452	     22.01264722	     13.35526415	      7.56049141	      0.38758400	     -0.31237995	     -2.95459488
      0.57900000	     -9.43361953	      0.84526874	     -1.87966576	     -0.70206149	      1.03092178	      0.29693222	     33.96378203	      1.60487725	      0.02549205	    -14.52915188	      2.68292767	     -4.92483477	     11.22799430	     -0.38272392	      1.20173876	     -3.66053791	    -24.41181501	     21.79247167	     13.98654007	      7.71142919	      0.33692931	     -0.15098932	     -2.91308552
      0.58316667	     -9.34840037	      0.74777702	     -1.81504694	     -0.69571717	      1.03058882	      0.29738608	     33.88060909	      1.74051397	      0.19197177	    -15.23897531	      2.34353988	     -5.36434695	     11.19751111	     -0.11681265	      0.92749679	     -4.02557593	    -25.89794191	     21.49742396	     14.61515063	      7.90679474	      0.29561414	      0.01204586	     -2.87582953
      0.58733333	     -9.18954034	      0.62716990	     -1.76013281	     -0.68939736	      1.03044935	      0.29787383	     33.70405578	      1.90478088	      0.38294538	    -15.92940594	      1.99180282	     -5.90182413	     11.09708054	      0.09466765	      0.61622066	     -4.39061432	    -27.41486974	     21.08606616	     15.23119368	      8.60008864	      0.13851880	      0.21948137	     -2.82301726
      0.59150000	     -9.11487276	      0.52719586	     -1.70276932	     -0.68309201	      1.03016854	      0.29837132	     33.64720866	      2.04154680	      0.49982615	    -16.69102546	      1.73058712	     -6.25606196	     11.00747162	      0.44554434	      0.30610333	     -4.76763765	    -29.01794260	     20.63471511	     15.86772843	      9.16592101	      0.10532392	      0.39701931	     -2.78423492
      0.59566667	     -9.07032728	      0.43936311	     -1.63740478	     -0.67680375	      1.02989197	      0.29885480	     33.62632058	      2.15874690	      0.58381674	    -17.46739906	      1.50030814	     -6.56822684	     10.35077629	      0.85634098	      0.00889716	     -5.07069745	    -30.64021183	     19.99131522	     16.33339966	     13.12736708	      0.12735813	      0.55208461	     -2.72247886
      0.59983333	     -8.97908826	      0.35571460	     -1.59130635	     -0.67056218	      1.02971548	      0.29938252	     33.56013982	      2.27746544	      0.66720682	    -18.25673207	      1.38453621	     -6.77853413	     10.33682176	      1.24591875	     -0.29654377	     -5.38999680	    -32.31177195	     19.36088636	     16.85618865	     13.18332762	      0.05884111	      0.70393662	     -2.68968106
      0.60400000	     -8.90009633	      0.25203799	     -1.53485165	     -0.66433788	      1.02958559	      0.29990411	     33.49051243	      2.41022254	      0.73132622	    -19.01798109	      1.26784912	     -7.02918727	     10.30878636	      1.68458271	     -0.63442353	     -5.67645096	    -34.02986808	     18.64548498	     17.34406371	     13.28422145	      0.01225480	      0.88059439	     -2.64361928
